STARTFONT 2.1
COMMENT
COMMENT Converted from OpenType font "uvn_baisau.ttf" by "otf2bdf 3.0".
COMMENT
FONT -FreeType-UVN Bai Sau-Bold-R-Normal--17-120-100-100-P-86-ISO10646-1
SIZE 12 100 100
FONTBOUNDINGBOX 23 23 -2 -4
STARTPROPERTIES 19
FOUNDRY "FreeType"
FAMILY_NAME "UVN Bai Sau"
WEIGHT_NAME "Bold"
SLANT "R"
SETWIDTH_NAME "Normal"
ADD_STYLE_NAME ""
PIXEL_SIZE 17
POINT_SIZE 120
RESOLUTION_X 100
RESOLUTION_Y 100
SPACING "P"
AVERAGE_WIDTH 86
CHARSET_REGISTRY "ISO10646"
CHARSET_ENCODING "1"
FONT_ASCENT 19
FONT_DESCENT 4
COPYRIGHT "(c) Copyright 2001 by Tom Truong. All Rights Reserved"
_OTF_FONTFILE "uvn_baisau.ttf"
_OTF_PSNAME "UVNBaiSauBold"
ENDPROPERTIES
CHARS 383
STARTCHAR 0020
ENCODING 32
SWIDTH 240 0
DWIDTH 4 0
BBX 0 0 0 0
BITMAP
ENDCHAR
STARTCHAR 0021
ENCODING 33
SWIDTH 300 0
DWIDTH 5 0
BBX 3 12 1 0
BITMAP
E0
E0
E0
E0
E0
E0
E0
E0
00
E0
E0
E0
ENDCHAR
STARTCHAR 0022
ENCODING 34
SWIDTH 300 0
DWIDTH 5 0
BBX 4 5 1 7
BITMAP
B0
B0
B0
B0
B0
ENDCHAR
STARTCHAR 0023
ENCODING 35
SWIDTH 720 0
DWIDTH 12 0
BBX 13 12 0 0
BITMAP
0660
0660
0660
3FF8
3FF0
0CC0
1980
7FE0
FFE0
3300
3300
7600
ENDCHAR
STARTCHAR 0024
ENCODING 36
SWIDTH 540 0
DWIDTH 9 0
BBX 6 14 2 -1
BITMAP
30
30
7C
FC
C0
E0
78
3C
1C
FC
FC
F8
30
30
ENDCHAR
STARTCHAR 0025
ENCODING 37
SWIDTH 840 0
DWIDTH 14 0
BBX 13 12 1 0
BITMAP
3060
F8C0
D880
8D80
DB00
FB00
06F0
05F8
0D98
1998
11F8
30F0
ENDCHAR
STARTCHAR 0026
ENCODING 38
SWIDTH 720 0
DWIDTH 12 0
BBX 11 12 1 0
BITMAP
3F00
7F00
7F00
3840
7CC0
FEE0
EEE0
E7E0
E3C0
F7C0
7FC0
3FE0
ENDCHAR
STARTCHAR 0027
ENCODING 39
SWIDTH 180 0
DWIDTH 3 0
BBX 1 5 1 7
BITMAP
80
80
80
80
80
ENDCHAR
STARTCHAR 0028
ENCODING 40
SWIDTH 360 0
DWIDTH 6 0
BBX 5 16 1 -4
BITMAP
10
18
30
70
60
60
C0
C0
C0
C0
60
60
70
30
18
10
ENDCHAR
STARTCHAR 0029
ENCODING 41
SWIDTH 360 0
DWIDTH 6 0
BBX 5 16 0 -4
BITMAP
40
E0
70
30
38
18
18
18
18
18
18
18
30
70
E0
40
ENDCHAR
STARTCHAR 002A
ENCODING 42
SWIDTH 480 0
DWIDTH 8 0
BBX 6 6 1 6
BITMAP
30
7C
EC
78
DC
30
ENDCHAR
STARTCHAR 002B
ENCODING 43
SWIDTH 780 0
DWIDTH 13 0
BBX 10 10 2 0
BITMAP
0C00
0C00
0C00
0C00
FFC0
FFC0
0C00
0C00
0C00
0C00
ENDCHAR
STARTCHAR 002C
ENCODING 44
SWIDTH 240 0
DWIDTH 4 0
BBX 4 5 0 -2
BITMAP
70
70
60
60
E0
ENDCHAR
STARTCHAR 002D
ENCODING 45
SWIDTH 300 0
DWIDTH 5 0
BBX 4 2 1 3
BITMAP
F0
F0
ENDCHAR
STARTCHAR 002E
ENCODING 46
SWIDTH 240 0
DWIDTH 4 0
BBX 3 3 1 0
BITMAP
E0
E0
E0
ENDCHAR
STARTCHAR 002F
ENCODING 47
SWIDTH 240 0
DWIDTH 4 0
BBX 6 14 -1 -2
BITMAP
04
0C
08
08
18
10
10
30
30
20
60
60
40
C0
ENDCHAR
STARTCHAR 0030
ENCODING 48
SWIDTH 540 0
DWIDTH 9 0
BBX 8 12 1 0
BITMAP
3C
FE
FF
C7
C7
C7
C7
C7
C7
EF
FE
7C
ENDCHAR
STARTCHAR 0031
ENCODING 49
SWIDTH 540 0
DWIDTH 9 0
BBX 5 12 2 0
BITMAP
F8
F8
F8
38
38
38
38
38
38
38
38
38
ENDCHAR
STARTCHAR 0032
ENCODING 50
SWIDTH 540 0
DWIDTH 9 0
BBX 8 12 1 0
BITMAP
38
7E
FE
E6
EE
EE
5C
38
70
FF
FF
FF
ENDCHAR
STARTCHAR 0033
ENCODING 51
SWIDTH 540 0
DWIDTH 9 0
BBX 8 12 1 0
BITMAP
FC
FE
FE
1E
3C
7C
7E
07
07
FF
FE
FC
ENDCHAR
STARTCHAR 0034
ENCODING 52
SWIDTH 540 0
DWIDTH 9 0
BBX 9 12 0 0
BITMAP
0F00
0D00
1F00
3B00
3F00
7700
6700
FF80
7F80
3F80
0700
0700
ENDCHAR
STARTCHAR 0035
ENCODING 53
SWIDTH 540 0
DWIDTH 9 0
BBX 8 12 1 0
BITMAP
FE
FE
FE
E0
FC
FE
FE
07
07
FE
FE
FC
ENDCHAR
STARTCHAR 0036
ENCODING 54
SWIDTH 540 0
DWIDTH 9 0
BBX 8 12 1 0
BITMAP
1C
1C
38
78
74
EE
EF
C7
C7
FF
FE
7C
ENDCHAR
STARTCHAR 0037
ENCODING 55
SWIDTH 540 0
DWIDTH 9 0
BBX 8 12 1 0
BITMAP
FC
FE
FF
0E
0E
0E
7E
1C
1C
38
38
38
ENDCHAR
STARTCHAR 0038
ENCODING 56
SWIDTH 540 0
DWIDTH 9 0
BBX 9 12 0 0
BITMAP
1E00
3F00
7700
6300
7700
3E00
7F00
6380
E380
7780
7F00
3E00
ENDCHAR
STARTCHAR 0039
ENCODING 57
SWIDTH 540 0
DWIDTH 9 0
BBX 9 12 0 0
BITMAP
1E00
3F00
7F80
7380
E380
7380
7700
3700
0E00
0E00
1C00
3C00
ENDCHAR
STARTCHAR 003A
ENCODING 58
SWIDTH 300 0
DWIDTH 5 0
BBX 3 8 1 0
BITMAP
E0
E0
E0
00
00
E0
E0
E0
ENDCHAR
STARTCHAR 003B
ENCODING 59
SWIDTH 300 0
DWIDTH 5 0
BBX 3 10 1 -2
BITMAP
E0
E0
E0
00
00
E0
E0
C0
C0
C0
ENDCHAR
STARTCHAR 003C
ENCODING 60
SWIDTH 780 0
DWIDTH 13 0
BBX 10 10 2 0
BITMAP
0040
03C0
0F80
3E00
F000
F000
7C00
0F80
03C0
0040
ENDCHAR
STARTCHAR 003D
ENCODING 61
SWIDTH 780 0
DWIDTH 13 0
BBX 10 6 2 2
BITMAP
FFC0
FFC0
0000
0000
FFC0
FFC0
ENDCHAR
STARTCHAR 003E
ENCODING 62
SWIDTH 780 0
DWIDTH 13 0
BBX 10 10 2 0
BITMAP
8000
E000
7C00
1F00
03C0
03C0
1F00
7C00
F000
8000
ENDCHAR
STARTCHAR 003F
ENCODING 63
SWIDTH 480 0
DWIDTH 8 0
BBX 7 12 1 0
BITMAP
78
FC
FE
CE
0E
3E
3C
30
00
30
78
38
ENDCHAR
STARTCHAR 0040
ENCODING 64
SWIDTH 960 0
DWIDTH 16 0
BBX 15 15 1 -3
BITMAP
07E0
1E78
300C
6006
C7E6
CCE6
8C66
98C6
98C4
CDDC
CF78
6000
3018
1FF0
0380
ENDCHAR
STARTCHAR 0041
ENCODING 65
SWIDTH 600 0
DWIDTH 10 0
BBX 9 12 1 0
BITMAP
3C00
7E00
FF00
E700
E380
FF80
FF80
FF80
E380
E380
E380
E380
ENDCHAR
STARTCHAR 0042
ENCODING 66
SWIDTH 540 0
DWIDTH 9 0
BBX 8 12 1 0
BITMAP
3C
7E
FF
E7
E7
FE
FF
E7
E7
FF
FF
FE
ENDCHAR
STARTCHAR 0043
ENCODING 67
SWIDTH 480 0
DWIDTH 8 0
BBX 8 12 0 0
BITMAP
03
1F
3F
78
70
E0
E0
70
70
7F
3F
0F
ENDCHAR
STARTCHAR 0044
ENCODING 68
SWIDTH 600 0
DWIDTH 10 0
BBX 9 12 1 0
BITMAP
F000
FE00
FF00
E780
E380
E380
E380
E380
E780
FF00
FE00
FC00
ENDCHAR
STARTCHAR 0045
ENCODING 69
SWIDTH 480 0
DWIDTH 8 0
BBX 8 12 0 0
BITMAP
03
1F
3F
78
70
FF
FF
70
70
7F
3F
0F
ENDCHAR
STARTCHAR 0046
ENCODING 70
SWIDTH 420 0
DWIDTH 7 0
BBX 6 12 1 0
BITMAP
3C
7C
FC
E0
E0
FC
FC
FC
E0
E0
E0
E0
ENDCHAR
STARTCHAR 0047
ENCODING 71
SWIDTH 720 0
DWIDTH 12 0
BBX 12 12 0 0
BITMAP
0F80
1FE0
3FE0
78C0
7000
73F0
E3F0
7070
70F0
7FE0
3FE0
0F80
ENDCHAR
STARTCHAR 0048
ENCODING 72
SWIDTH 600 0
DWIDTH 10 0
BBX 9 12 1 0
BITMAP
E380
E380
E380
E380
FF80
FF80
FF80
E380
E380
E380
E380
E380
ENDCHAR
STARTCHAR 0049
ENCODING 73
SWIDTH 240 0
DWIDTH 4 0
BBX 3 12 1 0
BITMAP
E0
E0
E0
E0
E0
E0
E0
E0
E0
E0
E0
E0
ENDCHAR
STARTCHAR 004A
ENCODING 74
SWIDTH 420 0
DWIDTH 7 0
BBX 6 12 0 0
BITMAP
1C
1C
1C
1C
1C
1C
1C
1C
1C
FC
FC
F8
ENDCHAR
STARTCHAR 004B
ENCODING 75
SWIDTH 600 0
DWIDTH 10 0
BBX 9 12 1 0
BITMAP
E380
E700
E700
EF00
FE00
FE00
FF00
E700
E700
E700
E700
E700
ENDCHAR
STARTCHAR 004C
ENCODING 76
SWIDTH 420 0
DWIDTH 7 0
BBX 6 12 1 0
BITMAP
E0
E0
E0
E0
E0
E0
E0
E0
E0
FC
FC
7C
ENDCHAR
STARTCHAR 004D
ENCODING 77
SWIDTH 780 0
DWIDTH 13 0
BBX 14 12 0 0
BITMAP
3860
3CF0
7CF0
7CF8
7CF8
7FF8
77B8
6798
6798
6798
E71C
E31C
ENDCHAR
STARTCHAR 004E
ENCODING 78
SWIDTH 660 0
DWIDTH 11 0
BBX 9 12 1 0
BITMAP
E380
F380
F380
FB80
DB80
FF80
EF80
EF80
E780
E780
E380
E380
ENDCHAR
STARTCHAR 004F
ENCODING 79
SWIDTH 720 0
DWIDTH 12 0
BBX 12 12 0 0
BITMAP
0F80
1FC0
3FE0
78F0
7070
6070
E070
7070
70F0
7FE0
3FE0
0F80
ENDCHAR
STARTCHAR 0050
ENCODING 80
SWIDTH 540 0
DWIDTH 9 0
BBX 8 12 1 0
BITMAP
3C
7E
FF
E7
E7
FF
FF
FC
E0
E0
E0
E0
ENDCHAR
STARTCHAR 0051
ENCODING 81
SWIDTH 720 0
DWIDTH 12 0
BBX 12 14 0 -2
BITMAP
0F80
1FC0
3FE0
78F0
7070
6070
E070
7770
77F0
7FF0
3FE0
0F80
0700
0700
ENDCHAR
STARTCHAR 0052
ENCODING 82
SWIDTH 540 0
DWIDTH 9 0
BBX 8 12 1 0
BITMAP
3C
7E
FF
E7
E7
FE
FE
FF
E7
E7
E7
E7
ENDCHAR
STARTCHAR 0053
ENCODING 83
SWIDTH 480 0
DWIDTH 8 0
BBX 7 12 1 0
BITMAP
3E
FE
FE
E0
E0
F8
3E
1E
0E
FE
FE
FC
ENDCHAR
STARTCHAR 0054
ENCODING 84
SWIDTH 480 0
DWIDTH 8 0
BBX 8 12 0 0
BITMAP
FF
FF
FF
1C
1C
1C
1C
1C
1C
1C
1C
1C
ENDCHAR
STARTCHAR 0055
ENCODING 85
SWIDTH 600 0
DWIDTH 10 0
BBX 9 12 1 0
BITMAP
E380
E380
E380
E380
E380
E380
E380
E380
E380
FF00
7F00
3E00
ENDCHAR
STARTCHAR 0056
ENCODING 86
SWIDTH 540 0
DWIDTH 9 0
BBX 9 12 0 0
BITMAP
E180
E380
E380
6380
7300
7700
7700
3700
3E00
3E00
3E00
1C00
ENDCHAR
STARTCHAR 0057
ENCODING 87
SWIDTH 900 0
DWIDTH 15 0
BBX 13 12 1 0
BITMAP
E718
E718
E718
E718
E718
E718
E718
E718
E718
FFF8
7FF8
3DF0
ENDCHAR
STARTCHAR 0058
ENCODING 88
SWIDTH 600 0
DWIDTH 10 0
BBX 10 12 0 0
BITMAP
C040
F3C0
FFC0
3F00
1E00
0E00
0E00
0E00
1F00
FFC0
FBC0
E0C0
ENDCHAR
STARTCHAR 0059
ENCODING 89
SWIDTH 540 0
DWIDTH 9 0
BBX 8 12 1 0
BITMAP
E7
E7
E7
E7
E7
FF
FE
7C
38
38
38
38
ENDCHAR
STARTCHAR 005A
ENCODING 90
SWIDTH 480 0
DWIDTH 8 0
BBX 9 12 0 0
BITMAP
7F00
7F80
7F80
0700
0E00
1E00
3C00
3800
7000
FF80
FF80
7F80
ENDCHAR
STARTCHAR 005B
ENCODING 91
SWIDTH 300 0
DWIDTH 5 0
BBX 4 16 1 -4
BITMAP
F0
E0
E0
E0
E0
E0
E0
E0
E0
E0
E0
E0
E0
E0
E0
F0
ENDCHAR
STARTCHAR 005C
ENCODING 92
SWIDTH 240 0
DWIDTH 4 0
BBX 5 14 0 -2
BITMAP
80
80
C0
C0
40
60
60
20
30
30
10
18
18
08
ENDCHAR
STARTCHAR 005D
ENCODING 93
SWIDTH 300 0
DWIDTH 5 0
BBX 3 16 1 -4
BITMAP
E0
60
60
60
60
60
60
60
60
60
60
60
60
60
60
E0
ENDCHAR
STARTCHAR 005E
ENCODING 94
SWIDTH 960 0
DWIDTH 16 0
BBX 9 5 4 7
BITMAP
1C00
3E00
7600
E300
C180
ENDCHAR
STARTCHAR 005F
ENCODING 95
SWIDTH 480 0
DWIDTH 8 0
BBX 8 2 0 -4
BITMAP
FF
FF
ENDCHAR
STARTCHAR 0060
ENCODING 96
SWIDTH 480 0
DWIDTH 8 0
BBX 3 3 2 9
BITMAP
C0
60
20
ENDCHAR
STARTCHAR 0061
ENCODING 97
SWIDTH 540 0
DWIDTH 9 0
BBX 9 8 0 0
BITMAP
3E00
7F00
7380
E380
E380
7F80
7F80
3F80
ENDCHAR
STARTCHAR 0062
ENCODING 98
SWIDTH 540 0
DWIDTH 9 0
BBX 8 12 1 0
BITMAP
C0
C0
C0
D0
DE
DE
C7
C7
C7
FF
7E
3C
ENDCHAR
STARTCHAR 0063
ENCODING 99
SWIDTH 360 0
DWIDTH 6 0
BBX 6 8 0 0
BITMAP
3C
7C
70
E0
E0
7C
7C
1C
ENDCHAR
STARTCHAR 0064
ENCODING 100
SWIDTH 540 0
DWIDTH 9 0
BBX 9 12 0 0
BITMAP
0380
0380
0380
0380
3F80
7F80
7380
E380
E380
7700
7F00
3E00
ENDCHAR
STARTCHAR 0065
ENCODING 101
SWIDTH 540 0
DWIDTH 9 0
BBX 9 8 0 0
BITMAP
3E00
7F00
6700
EE00
E900
7380
7F00
3E00
ENDCHAR
STARTCHAR 0066
ENCODING 102
SWIDTH 300 0
DWIDTH 5 0
BBX 5 12 1 0
BITMAP
38
F8
F8
C0
F8
F8
C0
C0
C0
C0
C0
C0
ENDCHAR
STARTCHAR 0067
ENCODING 103
SWIDTH 540 0
DWIDTH 9 0
BBX 9 12 0 -4
BITMAP
3E00
7F00
7380
E380
E380
7F80
7F80
3F80
0380
3F00
3F00
3C00
ENDCHAR
STARTCHAR 0068
ENCODING 104
SWIDTH 540 0
DWIDTH 9 0
BBX 7 12 1 0
BITMAP
C0
C0
C0
C0
FC
FE
EE
C6
C6
C6
C6
C6
ENDCHAR
STARTCHAR 0069
ENCODING 105
SWIDTH 240 0
DWIDTH 4 0
BBX 3 12 1 0
BITMAP
C0
E0
C0
00
C0
C0
C0
C0
C0
C0
C0
C0
ENDCHAR
STARTCHAR 006A
ENCODING 106
SWIDTH 240 0
DWIDTH 4 0
BBX 5 16 -1 -4
BITMAP
30
38
30
00
30
30
30
30
30
30
30
30
30
F0
F0
C0
ENDCHAR
STARTCHAR 006B
ENCODING 107
SWIDTH 480 0
DWIDTH 8 0
BBX 7 12 1 0
BITMAP
C0
C0
C0
C0
CE
CE
FC
FC
FE
CE
C6
C6
ENDCHAR
STARTCHAR 006C
ENCODING 108
SWIDTH 240 0
DWIDTH 4 0
BBX 2 12 1 0
BITMAP
C0
C0
C0
C0
C0
C0
C0
C0
C0
C0
C0
C0
ENDCHAR
STARTCHAR 006D
ENCODING 109
SWIDTH 780 0
DWIDTH 13 0
BBX 12 8 1 0
BITMAP
7BC0
FFE0
CE70
CE70
CE70
CE70
CE70
CE70
ENDCHAR
STARTCHAR 006E
ENCODING 110
SWIDTH 480 0
DWIDTH 8 0
BBX 7 8 1 0
BITMAP
7C
FE
EE
C6
C6
C6
C6
C6
ENDCHAR
STARTCHAR 006F
ENCODING 111
SWIDTH 540 0
DWIDTH 9 0
BBX 9 8 0 0
BITMAP
3E00
7F00
7380
E380
E380
7700
7F00
3E00
ENDCHAR
STARTCHAR 0070
ENCODING 112
SWIDTH 540 0
DWIDTH 9 0
BBX 8 12 1 -4
BITMAP
7C
FE
E7
C7
C7
DF
DE
DC
C0
C0
C0
C0
ENDCHAR
STARTCHAR 0071
ENCODING 113
SWIDTH 540 0
DWIDTH 9 0
BBX 9 12 0 -4
BITMAP
3E00
7F00
7380
E380
E380
7F80
7F80
3F80
0380
0380
0380
0380
ENDCHAR
STARTCHAR 0072
ENCODING 114
SWIDTH 360 0
DWIDTH 6 0
BBX 5 8 1 0
BITMAP
D8
F8
E0
E0
C0
C0
C0
C0
ENDCHAR
STARTCHAR 0073
ENCODING 115
SWIDTH 420 0
DWIDTH 7 0
BBX 6 8 1 0
BITMAP
F8
F8
C0
F0
3C
1C
FC
F8
ENDCHAR
STARTCHAR 0074
ENCODING 116
SWIDTH 300 0
DWIDTH 5 0
BBX 4 10 1 0
BITMAP
C0
C0
F0
F0
C0
C0
C0
E0
F0
70
ENDCHAR
STARTCHAR 0075
ENCODING 117
SWIDTH 480 0
DWIDTH 8 0
BBX 7 8 1 0
BITMAP
C6
C6
C6
C6
C6
EE
FE
7C
ENDCHAR
STARTCHAR 0076
ENCODING 118
SWIDTH 420 0
DWIDTH 7 0
BBX 8 8 0 0
BITMAP
E7
E7
66
7E
7E
3C
3C
18
ENDCHAR
STARTCHAR 0077
ENCODING 119
SWIDTH 780 0
DWIDTH 13 0
BBX 12 8 1 0
BITMAP
CE70
CE70
CE70
CE70
CE70
EE60
FFE0
7BC0
ENDCHAR
STARTCHAR 0078
ENCODING 120
SWIDTH 420 0
DWIDTH 7 0
BBX 7 8 0 0
BITMAP
EE
FE
3C
38
38
FE
FE
E6
ENDCHAR
STARTCHAR 0079
ENCODING 121
SWIDTH 480 0
DWIDTH 8 0
BBX 7 12 1 -4
BITMAP
C6
C6
C6
C6
C6
EE
FE
7C
38
38
38
38
ENDCHAR
STARTCHAR 007A
ENCODING 122
SWIDTH 420 0
DWIDTH 7 0
BBX 7 8 0 0
BITMAP
7E
7E
1E
3C
38
70
FE
7E
ENDCHAR
STARTCHAR 007B
ENCODING 123
SWIDTH 480 0
DWIDTH 8 0
BBX 6 15 1 -3
BITMAP
1C
3C
38
38
38
38
30
E0
F0
38
38
38
38
3C
1C
ENDCHAR
STARTCHAR 007C
ENCODING 124
SWIDTH 480 0
DWIDTH 8 0
BBX 2 17 3 -4
BITMAP
C0
C0
C0
C0
C0
C0
C0
C0
C0
C0
C0
C0
C0
C0
C0
C0
C0
ENDCHAR
STARTCHAR 007D
ENCODING 125
SWIDTH 480 0
DWIDTH 8 0
BBX 6 15 1 -3
BITMAP
E0
F0
30
30
30
30
38
1C
3C
30
30
30
30
F0
F0
ENDCHAR
STARTCHAR 007E
ENCODING 126
SWIDTH 780 0
DWIDTH 13 0
BBX 11 3 1 4
BITMAP
7F60
EFE0
8080
ENDCHAR
STARTCHAR 0080
ENCODING 128
SWIDTH 540 0
DWIDTH 9 0
BBX 9 12 0 0
BITMAP
0380
0F80
1F80
3800
3800
FF00
3000
FF00
3800
3F80
1F80
0780
ENDCHAR
STARTCHAR 00A0
ENCODING 160
SWIDTH 540 0
DWIDTH 9 0
BBX 0 0 0 0
BITMAP
ENDCHAR
STARTCHAR 00A1
ENCODING 161
SWIDTH 300 0
DWIDTH 5 0
BBX 3 12 1 0
BITMAP
60
E0
E0
00
E0
E0
E0
E0
E0
E0
E0
E0
ENDCHAR
STARTCHAR 00A2
ENCODING 162
SWIDTH 540 0
DWIDTH 9 0
BBX 5 11 2 0
BITMAP
10
10
78
F8
C0
C0
E0
F8
38
10
10
ENDCHAR
STARTCHAR 00A3
ENCODING 163
SWIDTH 540 0
DWIDTH 9 0
BBX 9 12 0 0
BITMAP
0E00
3E00
3E00
3800
7C00
7C00
7C00
3980
3380
FF80
FF00
FE00
ENDCHAR
STARTCHAR 00A4
ENCODING 164
SWIDTH 540 0
DWIDTH 9 0
BBX 9 12 0 0
BITMAP
0380
0F80
1F80
3800
3800
FF00
3000
FF00
3800
3F80
1F80
0780
ENDCHAR
STARTCHAR 00A5
ENCODING 165
SWIDTH 540 0
DWIDTH 9 0
BBX 10 12 0 0
BITMAP
E1C0
6180
7380
F3C0
F7C0
3E00
FFC0
1E00
0C00
0C00
0C00
0C00
ENDCHAR
STARTCHAR 00A6
ENCODING 166
SWIDTH 480 0
DWIDTH 8 0
BBX 2 15 3 -3
BITMAP
C0
C0
C0
C0
C0
C0
C0
00
00
C0
C0
C0
C0
C0
C0
ENDCHAR
STARTCHAR 00A7
ENCODING 167
SWIDTH 480 0
DWIDTH 8 0
BBX 7 13 1 -1
BITMAP
3C
FC
FC
E0
70
FC
CE
F6
3E
0E
0E
FE
FC
ENDCHAR
STARTCHAR 00A8
ENCODING 168
SWIDTH 480 0
DWIDTH 8 0
BBX 5 2 2 10
BITMAP
90
D8
ENDCHAR
STARTCHAR 00A9
ENCODING 169
SWIDTH 780 0
DWIDTH 13 0
BBX 12 12 1 0
BITMAP
1F80
30C0
4620
DFB0
9990
9810
9810
9990
DFB0
4660
30C0
1F80
ENDCHAR
STARTCHAR 00AA
ENCODING 170
SWIDTH 420 0
DWIDTH 7 0
BBX 7 6 0 6
BITMAP
38
7C
CC
C6
76
76
ENDCHAR
STARTCHAR 00AB
ENCODING 171
SWIDTH 540 0
DWIDTH 9 0
BBX 7 6 1 1
BITMAP
36
6C
C8
CC
64
36
ENDCHAR
STARTCHAR 00AC
ENCODING 172
SWIDTH 780 0
DWIDTH 13 0
BBX 10 4 2 3
BITMAP
FFC0
FFC0
00C0
00C0
ENDCHAR
STARTCHAR 00AD
ENCODING 173
SWIDTH 300 0
DWIDTH 5 0
BBX 4 2 1 3
BITMAP
F0
F0
ENDCHAR
STARTCHAR 00AE
ENCODING 174
SWIDTH 780 0
DWIDTH 13 0
BBX 12 12 1 0
BITMAP
1F80
30C0
4020
DFB0
9990
9F90
9F10
9B10
D9B0
4060
30C0
1F80
ENDCHAR
STARTCHAR 00AF
ENCODING 175
SWIDTH 480 0
DWIDTH 8 0
BBX 5 1 2 10
BITMAP
F8
ENDCHAR
STARTCHAR 00B0
ENCODING 176
SWIDTH 300 0
DWIDTH 5 0
BBX 5 5 0 7
BITMAP
70
C8
88
C8
70
ENDCHAR
STARTCHAR 00B1
ENCODING 177
SWIDTH 780 0
DWIDTH 13 0
BBX 10 10 2 0
BITMAP
0C00
0C00
FFC0
FFC0
0C00
0C00
0C00
0000
FFC0
FFC0
ENDCHAR
STARTCHAR 00B2
ENCODING 178
SWIDTH 360 0
DWIDTH 6 0
BBX 6 7 0 5
BITMAP
30
78
4C
58
30
60
FC
ENDCHAR
STARTCHAR 00B3
ENCODING 179
SWIDTH 360 0
DWIDTH 6 0
BBX 5 7 1 5
BITMAP
F0
F0
30
70
18
18
F0
ENDCHAR
STARTCHAR 00B4
ENCODING 180
SWIDTH 480 0
DWIDTH 8 0
BBX 3 3 3 9
BITMAP
60
40
80
ENDCHAR
STARTCHAR 00B5
ENCODING 181
SWIDTH 600 0
DWIDTH 10 0
BBX 10 12 0 -3
BITMAP
31C0
71C0
71C0
71C0
71C0
7380
7380
FF80
FF80
E000
E000
E000
ENDCHAR
STARTCHAR 00B6
ENCODING 182
SWIDTH 480 0
DWIDTH 8 0
BBX 8 12 0 0
BITMAP
7F
7A
FA
FA
7A
3A
1A
1A
1A
1A
1A
1A
ENDCHAR
STARTCHAR 00B7
ENCODING 183
SWIDTH 240 0
DWIDTH 4 0
BBX 3 4 1 4
BITMAP
40
E0
E0
40
ENDCHAR
STARTCHAR 00B8
ENCODING 184
SWIDTH 480 0
DWIDTH 8 0
BBX 5 5 2 -4
BITMAP
20
20
30
18
F0
ENDCHAR
STARTCHAR 00B9
ENCODING 185
SWIDTH 360 0
DWIDTH 6 0
BBX 3 7 2 5
BITMAP
E0
E0
60
60
60
60
60
ENDCHAR
STARTCHAR 00BA
ENCODING 186
SWIDTH 360 0
DWIDTH 6 0
BBX 7 6 0 6
BITMAP
38
7C
EC
C6
7C
78
ENDCHAR
STARTCHAR 00BB
ENCODING 187
SWIDTH 540 0
DWIDTH 9 0
BBX 7 6 1 1
BITMAP
D8
6C
26
66
4C
D8
ENDCHAR
STARTCHAR 00BC
ENCODING 188
SWIDTH 840 0
DWIDTH 14 0
BBX 13 12 1 0
BITMAP
E040
E0C0
2080
2180
2300
2338
2628
0478
0CD8
08F8
18F8
3018
ENDCHAR
STARTCHAR 00BD
ENCODING 189
SWIDTH 840 0
DWIDTH 14 0
BBX 13 12 1 0
BITMAP
E040
E0C0
2080
2180
2300
2330
26F8
04D8
0C78
0870
18F8
30F8
ENDCHAR
STARTCHAR 00BE
ENCODING 190
SWIDTH 840 0
DWIDTH 14 0
BBX 13 12 1 0
BITMAP
E040
F0C0
6080
7180
1300
F338
F628
0478
0CD8
08F8
18F8
3018
ENDCHAR
STARTCHAR 00BF
ENCODING 191
SWIDTH 480 0
DWIDTH 8 0
BBX 7 12 1 0
BITMAP
38
38
38
00
38
78
F8
E0
C0
EE
FE
7C
ENDCHAR
STARTCHAR 00C0
ENCODING 192
SWIDTH 600 0
DWIDTH 10 0
BBX 9 16 1 0
BITMAP
3000
1800
0800
0000
3C00
7E00
FF00
E700
E380
FF80
FF80
FF80
E380
E380
E380
E380
ENDCHAR
STARTCHAR 00C1
ENCODING 193
SWIDTH 600 0
DWIDTH 10 0
BBX 9 16 1 0
BITMAP
0C00
0C00
1800
0000
3C00
7E00
FF00
E700
E380
FF80
FF80
FF80
E380
E380
E380
E380
ENDCHAR
STARTCHAR 00C2
ENCODING 194
SWIDTH 600 0
DWIDTH 10 0
BBX 9 15 1 0
BITMAP
1C00
3400
2600
3C00
7E00
FF00
E700
E380
FF80
FF80
FF80
E380
E380
E380
E380
ENDCHAR
STARTCHAR 00C3
ENCODING 195
SWIDTH 600 0
DWIDTH 10 0
BBX 9 15 1 0
BITMAP
3E00
2C00
0000
3C00
7E00
FF00
E700
E380
FF80
FF80
FF80
E380
E380
E380
E380
ENDCHAR
STARTCHAR 00C4
ENCODING 196
SWIDTH 600 0
DWIDTH 10 0
BBX 9 15 1 0
BITMAP
3600
3400
0000
3C00
7E00
FF00
E700
E380
FF80
FF80
FF80
E380
E380
E380
E380
ENDCHAR
STARTCHAR 00C5
ENCODING 197
SWIDTH 600 0
DWIDTH 10 0
BBX 9 16 1 0
BITMAP
1C00
2400
2400
1C00
3C00
7E00
FF00
E700
E380
FF80
FF80
FF80
E380
E380
E380
E380
ENDCHAR
STARTCHAR 00C6
ENCODING 198
SWIDTH 840 0
DWIDTH 14 0
BBX 13 12 1 0
BITMAP
3C18
7EF8
FFF8
E7C0
E380
FFF8
FFF8
E300
E380
E3F8
E3F8
E378
ENDCHAR
STARTCHAR 00C7
ENCODING 199
SWIDTH 480 0
DWIDTH 8 0
BBX 8 16 0 -4
BITMAP
03
1F
3F
78
70
E0
E0
70
70
7F
3F
0F
08
0E
02
1E
ENDCHAR
STARTCHAR 00C8
ENCODING 200
SWIDTH 480 0
DWIDTH 8 0
BBX 8 16 0 0
BITMAP
18
0C
04
00
03
1F
3F
78
70
FF
FF
70
70
7F
3F
0F
ENDCHAR
STARTCHAR 00C9
ENCODING 201
SWIDTH 480 0
DWIDTH 8 0
BBX 8 16 0 0
BITMAP
03
06
04
00
03
1F
3F
78
70
FF
FF
70
70
7F
3F
0F
ENDCHAR
STARTCHAR 00CA
ENCODING 202
SWIDTH 480 0
DWIDTH 8 0
BBX 8 15 0 0
BITMAP
0E
0A
11
03
1F
3F
78
70
FF
FF
70
70
7F
3F
0F
ENDCHAR
STARTCHAR 00CB
ENCODING 203
SWIDTH 480 0
DWIDTH 8 0
BBX 8 15 0 0
BITMAP
1B
1B
00
03
1F
3F
78
70
FF
FF
70
70
7F
3F
0F
ENDCHAR
STARTCHAR 00CC
ENCODING 204
SWIDTH 240 0
DWIDTH 4 0
BBX 4 16 0 0
BITMAP
C0
60
20
00
70
70
70
70
70
70
70
70
70
70
70
70
ENDCHAR
STARTCHAR 00CD
ENCODING 205
SWIDTH 240 0
DWIDTH 4 0
BBX 4 16 1 0
BITMAP
30
60
C0
00
E0
E0
E0
E0
E0
E0
E0
E0
E0
E0
E0
E0
ENDCHAR
STARTCHAR 00CE
ENCODING 206
SWIDTH 240 0
DWIDTH 4 0
BBX 5 16 0 0
BITMAP
60
70
D8
00
70
70
70
70
70
70
70
70
70
70
70
70
ENDCHAR
STARTCHAR 00CF
ENCODING 207
SWIDTH 240 0
DWIDTH 4 0
BBX 5 15 0 0
BITMAP
D8
D8
00
70
70
70
70
70
70
70
70
70
70
70
70
ENDCHAR
STARTCHAR 00D0
ENCODING 208
SWIDTH 600 0
DWIDTH 10 0
BBX 10 12 0 0
BITMAP
7C00
7F00
7F80
73C0
71C0
F9C0
F9C0
71C0
73C0
7F80
7F00
7E00
ENDCHAR
STARTCHAR 00D1
ENCODING 209
SWIDTH 660 0
DWIDTH 11 0
BBX 9 15 1 0
BITMAP
3E00
2400
0000
E380
F380
F380
FB80
DB80
FF80
EF80
EF80
E780
E780
E380
E380
ENDCHAR
STARTCHAR 00D2
ENCODING 210
SWIDTH 720 0
DWIDTH 12 0
BBX 12 16 0 0
BITMAP
0C00
0600
0200
0000
0F80
1FC0
3FE0
78F0
7070
6070
E070
7070
70F0
7FE0
3FE0
0F80
ENDCHAR
STARTCHAR 00D3
ENCODING 211
SWIDTH 720 0
DWIDTH 12 0
BBX 12 16 0 0
BITMAP
0180
0300
0200
0000
0F80
1FC0
3FE0
78F0
7070
6070
E070
7070
70F0
7FE0
3FE0
0F80
ENDCHAR
STARTCHAR 00D4
ENCODING 212
SWIDTH 720 0
DWIDTH 12 0
BBX 12 15 0 0
BITMAP
0700
0D00
0880
0F80
1FC0
3FE0
78F0
7070
6070
E070
7070
70F0
7FE0
3FE0
0F80
ENDCHAR
STARTCHAR 00D5
ENCODING 213
SWIDTH 720 0
DWIDTH 12 0
BBX 12 15 0 0
BITMAP
0F80
0900
0000
0F80
1FC0
3FE0
78F0
7070
6070
E070
7070
70F0
7FE0
3FE0
0F80
ENDCHAR
STARTCHAR 00D6
ENCODING 214
SWIDTH 720 0
DWIDTH 12 0
BBX 12 15 0 0
BITMAP
0D80
0D80
0000
0F80
1FC0
3FE0
78F0
7070
6070
E070
7070
70F0
7FE0
3FE0
0F80
ENDCHAR
STARTCHAR 00D7
ENCODING 215
SWIDTH 780 0
DWIDTH 13 0
BBX 10 10 2 0
BITMAP
4080
E1C0
7380
3F00
1E00
1E00
3F00
7380
E1C0
4080
ENDCHAR
STARTCHAR 00D8
ENCODING 216
SWIDTH 720 0
DWIDTH 12 0
BBX 12 13 0 -1
BITMAP
0F30
1FF0
3FE0
78F0
71F0
6370
E630
7C70
7870
7FE0
7FE0
6F80
4000
ENDCHAR
STARTCHAR 00D9
ENCODING 217
SWIDTH 600 0
DWIDTH 10 0
BBX 9 16 1 0
BITMAP
3000
1800
0800
0000
E380
E380
E380
E380
E380
E380
E380
E380
E380
FF00
7F00
3E00
ENDCHAR
STARTCHAR 00DA
ENCODING 218
SWIDTH 600 0
DWIDTH 10 0
BBX 9 16 1 0
BITMAP
0C00
0C00
1800
0000
E380
E380
E380
E380
E380
E380
E380
E380
E380
FF00
7F00
3E00
ENDCHAR
STARTCHAR 00DB
ENCODING 219
SWIDTH 600 0
DWIDTH 10 0
BBX 9 16 1 0
BITMAP
1800
1C00
2400
0000
E380
E380
E380
E380
E380
E380
E380
E380
E380
FF00
7F00
3E00
ENDCHAR
STARTCHAR 00DC
ENCODING 220
SWIDTH 600 0
DWIDTH 10 0
BBX 9 15 1 0
BITMAP
3600
3400
0000
E380
E380
E380
E380
E380
E380
E380
E380
E380
FF00
7F00
3E00
ENDCHAR
STARTCHAR 00DD
ENCODING 221
SWIDTH 540 0
DWIDTH 9 0
BBX 8 16 1 0
BITMAP
0C
18
10
00
E7
E7
E7
E7
E7
FF
FE
7C
38
38
38
38
ENDCHAR
STARTCHAR 00DE
ENCODING 222
SWIDTH 540 0
DWIDTH 9 0
BBX 8 12 1 0
BITMAP
E0
E0
FE
FF
FF
E7
E7
FF
FE
FC
E0
E0
ENDCHAR
STARTCHAR 00DF
ENCODING 223
SWIDTH 540 0
DWIDTH 9 0
BBX 9 12 0 0
BITMAP
1C00
7E00
7700
6700
E600
EF00
6780
6380
6180
6380
6F80
6F00
ENDCHAR
STARTCHAR 00E0
ENCODING 224
SWIDTH 540 0
DWIDTH 9 0
BBX 9 12 0 0
BITMAP
1800
0800
0400
0000
3E00
7F00
7380
E380
E380
7F80
7F80
3F80
ENDCHAR
STARTCHAR 00E1
ENCODING 225
SWIDTH 540 0
DWIDTH 9 0
BBX 9 12 0 0
BITMAP
0600
0C00
0800
0000
3E00
7F00
7380
E380
E380
7F80
7F80
3F80
ENDCHAR
STARTCHAR 00E2
ENCODING 226
SWIDTH 540 0
DWIDTH 9 0
BBX 9 12 0 0
BITMAP
1C00
1600
3200
0000
3E00
7F00
7380
E380
E380
7F80
7F80
3F80
ENDCHAR
STARTCHAR 00E3
ENCODING 227
SWIDTH 540 0
DWIDTH 9 0
BBX 9 12 0 0
BITMAP
0200
3E00
0000
0000
3E00
7F00
7380
E380
E380
7F80
7F80
3F80
ENDCHAR
STARTCHAR 00E4
ENCODING 228
SWIDTH 540 0
DWIDTH 9 0
BBX 9 12 0 0
BITMAP
1600
3600
0000
0000
3E00
7F00
7380
E380
E380
7F80
7F80
3F80
ENDCHAR
STARTCHAR 00E5
ENCODING 229
SWIDTH 540 0
DWIDTH 9 0
BBX 9 13 0 0
BITMAP
1E00
1200
1200
1C00
0000
3E00
7F00
7380
E380
E380
7F80
7F80
3F80
ENDCHAR
STARTCHAR 00E6
ENCODING 230
SWIDTH 840 0
DWIDTH 14 0
BBX 14 8 0 0
BITMAP
7DF0
7FF8
0F3C
7F70
E740
E79C
FFF8
7DF0
ENDCHAR
STARTCHAR 00E7
ENCODING 231
SWIDTH 360 0
DWIDTH 6 0
BBX 6 12 0 -4
BITMAP
3C
7C
70
E0
E0
7C
7C
1C
10
1C
04
3C
ENDCHAR
STARTCHAR 00E8
ENCODING 232
SWIDTH 540 0
DWIDTH 9 0
BBX 9 12 0 0
BITMAP
1800
0800
0400
0000
3E00
7F00
6700
EE00
E900
7380
7F00
3E00
ENDCHAR
STARTCHAR 00E9
ENCODING 233
SWIDTH 540 0
DWIDTH 9 0
BBX 9 12 0 0
BITMAP
0600
0C00
1800
0000
3E00
7F00
6700
EE00
E900
7380
7F00
3E00
ENDCHAR
STARTCHAR 00EA
ENCODING 234
SWIDTH 540 0
DWIDTH 9 0
BBX 9 12 0 0
BITMAP
1C00
1400
2200
0000
3E00
7F00
6700
EE00
E900
7380
7F00
3E00
ENDCHAR
STARTCHAR 00EB
ENCODING 235
SWIDTH 540 0
DWIDTH 9 0
BBX 9 12 0 0
BITMAP
1600
3600
0000
0000
3E00
7F00
6700
EE00
E900
7380
7F00
3E00
ENDCHAR
STARTCHAR 00EC
ENCODING 236
SWIDTH 240 0
DWIDTH 4 0
BBX 3 12 0 0
BITMAP
C0
60
20
00
60
60
60
60
60
60
60
60
ENDCHAR
STARTCHAR 00ED
ENCODING 237
SWIDTH 240 0
DWIDTH 4 0
BBX 3 12 1 0
BITMAP
60
C0
80
00
C0
C0
C0
C0
C0
C0
C0
C0
ENDCHAR
STARTCHAR 00EE
ENCODING 238
SWIDTH 240 0
DWIDTH 4 0
BBX 4 12 0 0
BITMAP
60
F0
90
00
60
60
60
60
60
60
60
60
ENDCHAR
STARTCHAR 00EF
ENCODING 239
SWIDTH 240 0
DWIDTH 4 0
BBX 5 12 0 0
BITMAP
90
F8
00
00
60
60
60
60
60
60
60
60
ENDCHAR
STARTCHAR 00F0
ENCODING 240
SWIDTH 480 0
DWIDTH 8 0
BBX 8 12 0 0
BITMAP
38
1E
3C
0E
1E
7F
73
E3
E3
77
7F
3E
ENDCHAR
STARTCHAR 00F1
ENCODING 241
SWIDTH 480 0
DWIDTH 8 0
BBX 7 12 1 0
BITMAP
04
7C
00
00
7C
FE
EE
C6
C6
C6
C6
C6
ENDCHAR
STARTCHAR 00F2
ENCODING 242
SWIDTH 540 0
DWIDTH 9 0
BBX 9 12 0 0
BITMAP
1800
0800
0C00
0000
3E00
7F00
7380
E380
E380
7700
7F00
3E00
ENDCHAR
STARTCHAR 00F3
ENCODING 243
SWIDTH 540 0
DWIDTH 9 0
BBX 9 12 0 0
BITMAP
0400
0C00
1800
0000
3E00
7F00
7380
E380
E380
7700
7F00
3E00
ENDCHAR
STARTCHAR 00F4
ENCODING 244
SWIDTH 540 0
DWIDTH 9 0
BBX 9 12 0 0
BITMAP
1C00
1400
2200
0000
3E00
7F00
7380
E380
E380
7700
7F00
3E00
ENDCHAR
STARTCHAR 00F5
ENCODING 245
SWIDTH 540 0
DWIDTH 9 0
BBX 9 12 0 0
BITMAP
0200
3E00
0000
0000
3E00
7F00
7380
E380
E380
7700
7F00
3E00
ENDCHAR
STARTCHAR 00F6
ENCODING 246
SWIDTH 540 0
DWIDTH 9 0
BBX 9 12 0 0
BITMAP
1600
3600
0000
0000
3E00
7F00
7380
E380
E380
7700
7F00
3E00
ENDCHAR
STARTCHAR 00F7
ENCODING 247
SWIDTH 780 0
DWIDTH 13 0
BBX 10 10 2 0
BITMAP
0C00
0C00
0C00
0000
FFC0
FFC0
0000
0C00
0C00
0C00
ENDCHAR
STARTCHAR 00F8
ENCODING 248
SWIDTH 540 0
DWIDTH 9 0
BBX 9 10 0 -1
BITMAP
0100
3F00
7F00
6780
EF80
FB80
7700
7F00
7E00
4000
ENDCHAR
STARTCHAR 00F9
ENCODING 249
SWIDTH 480 0
DWIDTH 8 0
BBX 7 12 1 0
BITMAP
30
10
18
00
C6
C6
C6
C6
C6
EE
FE
7C
ENDCHAR
STARTCHAR 00FA
ENCODING 250
SWIDTH 480 0
DWIDTH 8 0
BBX 7 12 1 0
BITMAP
18
10
30
00
C6
C6
C6
C6
C6
EE
FE
7C
ENDCHAR
STARTCHAR 00FB
ENCODING 251
SWIDTH 480 0
DWIDTH 8 0
BBX 7 12 1 0
BITMAP
38
28
44
00
C6
C6
C6
C6
C6
EE
FE
7C
ENDCHAR
STARTCHAR 00FC
ENCODING 252
SWIDTH 480 0
DWIDTH 8 0
BBX 7 12 1 0
BITMAP
6C
6C
00
00
C6
C6
C6
C6
C6
EE
FE
7C
ENDCHAR
STARTCHAR 00FD
ENCODING 253
SWIDTH 480 0
DWIDTH 8 0
BBX 7 16 1 -4
BITMAP
18
10
30
00
C6
C6
C6
C6
C6
EE
FE
7C
38
38
38
38
ENDCHAR
STARTCHAR 00FE
ENCODING 254
SWIDTH 540 0
DWIDTH 9 0
BBX 8 16 1 -4
BITMAP
C0
C0
C0
C0
FC
FE
E7
C7
C7
DF
DE
DC
C0
C0
C0
C0
ENDCHAR
STARTCHAR 00FF
ENCODING 255
SWIDTH 480 0
DWIDTH 8 0
BBX 7 16 1 -4
BITMAP
6C
6C
00
00
C6
C6
C6
C6
C6
EE
FE
7C
38
38
38
38
ENDCHAR
STARTCHAR 0102
ENCODING 258
SWIDTH 600 0
DWIDTH 10 0
BBX 9 15 1 0
BITMAP
2200
3C00
0000
3C00
7E00
FF00
E700
E380
FF80
FF80
FF80
E380
E380
E380
E380
ENDCHAR
STARTCHAR 0103
ENCODING 259
SWIDTH 540 0
DWIDTH 9 0
BBX 9 12 0 0
BITMAP
2200
1E00
0800
0000
3E00
7F00
7380
E380
E380
7F80
7F80
3F80
ENDCHAR
STARTCHAR 0106
ENCODING 262
SWIDTH 480 0
DWIDTH 8 0
BBX 8 16 0 0
BITMAP
03
06
04
00
03
1F
3F
78
70
E0
E0
70
70
7F
3F
0F
ENDCHAR
STARTCHAR 0107
ENCODING 263
SWIDTH 360 0
DWIDTH 6 0
BBX 6 12 0 0
BITMAP
0C
08
10
00
3C
7C
70
E0
E0
7C
7C
1C
ENDCHAR
STARTCHAR 010C
ENCODING 268
SWIDTH 480 0
DWIDTH 8 0
BBX 8 16 0 0
BITMAP
11
0A
0E
00
03
1F
3F
78
70
E0
E0
70
70
7F
3F
0F
ENDCHAR
STARTCHAR 010D
ENCODING 269
SWIDTH 360 0
DWIDTH 6 0
BBX 6 12 0 0
BITMAP
24
1C
18
00
3C
7C
70
E0
E0
7C
7C
1C
ENDCHAR
STARTCHAR 0110
ENCODING 272
SWIDTH 600 0
DWIDTH 10 0
BBX 10 12 0 0
BITMAP
7C00
7F00
7F80
73C0
71C0
F9C0
F9C0
71C0
73C0
7F80
7F00
7E00
ENDCHAR
STARTCHAR 0111
ENCODING 273
SWIDTH 540 0
DWIDTH 9 0
BBX 9 12 0 0
BITMAP
0380
0F80
0F80
0380
3F80
7F80
7380
E380
E380
7700
7F00
3E00
ENDCHAR
STARTCHAR 011E
ENCODING 286
SWIDTH 720 0
DWIDTH 12 0
BBX 12 15 0 0
BITMAP
0980
0700
0000
0F80
1FE0
3FE0
78C0
7000
73F0
E3F0
7070
70F0
7FE0
3FE0
0F80
ENDCHAR
STARTCHAR 011F
ENCODING 287
SWIDTH 540 0
DWIDTH 9 0
BBX 9 16 0 -4
BITMAP
2200
1E00
0800
0000
3E00
7F00
7380
E380
E380
7F80
7F80
3F80
0380
3F00
3F00
3C00
ENDCHAR
STARTCHAR 0128
ENCODING 296
SWIDTH 240 0
DWIDTH 4 0
BBX 5 15 0 0
BITMAP
F8
90
00
70
70
70
70
70
70
70
70
70
70
70
70
ENDCHAR
STARTCHAR 0129
ENCODING 297
SWIDTH 240 0
DWIDTH 4 0
BBX 5 12 0 0
BITMAP
08
F0
00
00
60
60
60
60
60
60
60
60
ENDCHAR
STARTCHAR 0130
ENCODING 304
SWIDTH 240 0
DWIDTH 4 0
BBX 3 15 1 0
BITMAP
C0
40
00
E0
E0
E0
E0
E0
E0
E0
E0
E0
E0
E0
E0
ENDCHAR
STARTCHAR 0131
ENCODING 305
SWIDTH 240 0
DWIDTH 4 0
BBX 2 8 1 0
BITMAP
C0
C0
C0
C0
C0
C0
C0
C0
ENDCHAR
STARTCHAR 0141
ENCODING 321
SWIDTH 420 0
DWIDTH 7 0
BBX 7 12 0 0
BITMAP
70
70
70
74
7C
78
F0
F0
70
7E
7E
1E
ENDCHAR
STARTCHAR 0142
ENCODING 322
SWIDTH 240 0
DWIDTH 4 0
BBX 4 12 0 0
BITMAP
70
70
70
70
70
70
F0
F0
70
70
70
70
ENDCHAR
STARTCHAR 0152
ENCODING 338
SWIDTH 1020 0
DWIDTH 17 0
BBX 17 12 0 0
BITMAP
0F0380
1FCF80
3FFF80
78F800
707000
607F80
E07F80
707000
70F800
7FFF80
3FDF80
0F8780
ENDCHAR
STARTCHAR 0153
ENCODING 339
SWIDTH 840 0
DWIDTH 14 0
BBX 14 8 0 0
BITMAP
3EF8
7FFC
73BC
E3F0
E3AC
77DC
7FFC
3EF8
ENDCHAR
STARTCHAR 015E
ENCODING 350
SWIDTH 480 0
DWIDTH 8 0
BBX 7 16 1 -4
BITMAP
3E
FE
FE
E0
E0
F8
3E
1E
0E
FE
FE
FC
10
1C
0C
38
ENDCHAR
STARTCHAR 015F
ENCODING 351
SWIDTH 420 0
DWIDTH 7 0
BBX 6 12 1 -4
BITMAP
F8
F8
C0
F0
3C
1C
FC
F8
20
38
08
78
ENDCHAR
STARTCHAR 0160
ENCODING 352
SWIDTH 480 0
DWIDTH 8 0
BBX 7 16 1 0
BITMAP
44
28
38
00
3E
FE
FE
E0
E0
F8
3E
1E
0E
FE
FE
FC
ENDCHAR
STARTCHAR 0161
ENCODING 353
SWIDTH 420 0
DWIDTH 7 0
BBX 6 12 1 0
BITMAP
C8
70
30
00
F8
F8
C0
F0
3C
1C
FC
F8
ENDCHAR
STARTCHAR 0168
ENCODING 360
SWIDTH 600 0
DWIDTH 10 0
BBX 9 15 1 0
BITMAP
3C00
2C00
0000
E380
E380
E380
E380
E380
E380
E380
E380
E380
FF00
7F00
3E00
ENDCHAR
STARTCHAR 0169
ENCODING 361
SWIDTH 480 0
DWIDTH 8 0
BBX 7 12 1 0
BITMAP
04
7C
00
00
C6
C6
C6
C6
C6
EE
FE
7C
ENDCHAR
STARTCHAR 0178
ENCODING 376
SWIDTH 540 0
DWIDTH 9 0
BBX 8 15 1 0
BITMAP
6C
2C
00
E7
E7
E7
E7
E7
FF
FE
7C
38
38
38
38
ENDCHAR
STARTCHAR 017D
ENCODING 381
SWIDTH 480 0
DWIDTH 8 0
BBX 9 16 0 0
BITMAP
2200
1400
1C00
0000
7F00
7F80
7F80
0700
0E00
1E00
3C00
3800
7000
FF80
FF80
7F80
ENDCHAR
STARTCHAR 017E
ENCODING 382
SWIDTH 420 0
DWIDTH 7 0
BBX 7 12 0 0
BITMAP
24
38
18
00
7E
7E
1E
3C
38
70
FE
7E
ENDCHAR
STARTCHAR 0192
ENCODING 402
SWIDTH 540 0
DWIDTH 9 0
BBX 9 16 0 -4
BITMAP
0380
0F80
0F80
0C00
0C00
7F00
7F00
1C00
1C00
1C00
1C00
1800
1800
F800
F800
E000
ENDCHAR
STARTCHAR 01A0
ENCODING 416
SWIDTH 720 0
DWIDTH 12 0
BBX 13 13 0 0
BITMAP
0038
0FB0
1FF0
3FE0
78F0
7070
6070
E070
7070
70F0
7FE0
3FE0
0F80
ENDCHAR
STARTCHAR 01A1
ENCODING 417
SWIDTH 540 0
DWIDTH 9 0
BBX 10 10 0 0
BITMAP
01C0
0180
3F80
7F00
7380
E380
E380
7700
7F00
3E00
ENDCHAR
STARTCHAR 01AF
ENCODING 431
SWIDTH 660 0
DWIDTH 11 0
BBX 11 13 1 0
BITMAP
0060
E3C0
E3C0
E380
E380
E380
E380
E380
E380
E380
FF00
7F00
3E00
ENDCHAR
STARTCHAR 01B0
ENCODING 432
SWIDTH 540 0
DWIDTH 9 0
BBX 9 10 1 0
BITMAP
0180
0180
C700
C700
C600
C600
C600
EE00
FE00
7C00
ENDCHAR
STARTCHAR 02C6
ENCODING 710
SWIDTH 480 0
DWIDTH 8 0
BBX 5 3 2 9
BITMAP
70
D0
98
ENDCHAR
STARTCHAR 02C7
ENCODING 711
SWIDTH 480 0
DWIDTH 8 0
BBX 4 3 2 9
BITMAP
90
70
60
ENDCHAR
STARTCHAR 02C9
ENCODING 713
SWIDTH 480 0
DWIDTH 8 0
BBX 5 1 2 10
BITMAP
F8
ENDCHAR
STARTCHAR 02D8
ENCODING 728
SWIDTH 480 0
DWIDTH 8 0
BBX 5 3 2 9
BITMAP
88
F0
60
ENDCHAR
STARTCHAR 02D9
ENCODING 729
SWIDTH 480 0
DWIDTH 8 0
BBX 2 2 3 10
BITMAP
C0
C0
ENDCHAR
STARTCHAR 02DA
ENCODING 730
SWIDTH 480 0
DWIDTH 8 0
BBX 4 4 2 9
BITMAP
F0
90
D0
60
ENDCHAR
STARTCHAR 02DB
ENCODING 731
SWIDTH 480 0
DWIDTH 8 0
BBX 3 4 3 -4
BITMAP
40
80
E0
E0
ENDCHAR
STARTCHAR 02DC
ENCODING 732
SWIDTH 480 0
DWIDTH 8 0
BBX 5 2 2 10
BITMAP
08
F0
ENDCHAR
STARTCHAR 02DD
ENCODING 733
SWIDTH 480 0
DWIDTH 8 0
BBX 5 3 2 9
BITMAP
78
50
90
ENDCHAR
STARTCHAR 0394
ENCODING 916
SWIDTH 660 0
DWIDTH 11 0
BBX 12 12 0 0
BITMAP
0F00
0F00
1F80
1F80
1F80
39C0
39C0
39C0
70E0
70E0
7FE0
FFF0
ENDCHAR
STARTCHAR 03A9
ENCODING 937
SWIDTH 780 0
DWIDTH 13 0
BBX 13 12 0 0
BITMAP
1FC0
3FE0
7CF0
7070
7070
7070
7070
7070
38E0
FCF8
FCF8
FCF8
ENDCHAR
STARTCHAR 03BC
ENCODING 956
SWIDTH 600 0
DWIDTH 10 0
BBX 10 12 0 -3
BITMAP
31C0
71C0
71C0
71C0
71C0
7380
7380
FF80
FF80
E000
E000
E000
ENDCHAR
STARTCHAR 03C0
ENCODING 960
SWIDTH 720 0
DWIDTH 12 0
BBX 12 9 0 0
BITMAP
7FF0
7FF0
DCE0
1CE0
1DC0
19C0
39C0
39C0
39C0
ENDCHAR
STARTCHAR 1EA0
ENCODING 7840
SWIDTH 600 0
DWIDTH 10 0
BBX 9 16 1 -4
BITMAP
3C00
7E00
FF00
E700
E380
FF80
FF80
FF80
E380
E380
E380
E380
0000
1800
1C00
1C00
ENDCHAR
STARTCHAR 1EA1
ENCODING 7841
SWIDTH 540 0
DWIDTH 9 0
BBX 9 12 0 -4
BITMAP
3E00
7F00
7380
E380
E380
7F80
7F80
3F80
0000
0C00
1C00
1C00
ENDCHAR
STARTCHAR 1EA2
ENCODING 7842
SWIDTH 600 0
DWIDTH 10 0
BBX 9 16 1 0
BITMAP
1C00
1400
0C00
0800
3C00
7E00
FF00
E700
E380
FF80
FF80
FF80
E380
E380
E380
E380
ENDCHAR
STARTCHAR 1EA3
ENCODING 7843
SWIDTH 540 0
DWIDTH 9 0
BBX 9 13 0 0
BITMAP
0C00
1400
0C00
0800
0000
3E00
7F00
7380
E380
E380
7F80
7F80
3F80
ENDCHAR
STARTCHAR 1EA4
ENCODING 7844
SWIDTH 600 0
DWIDTH 10 0
BBX 9 19 1 0
BITMAP
0C00
1800
1000
0000
1C00
3400
2600
3C00
7E00
FF00
E700
E380
FF80
FF80
FF80
E380
E380
E380
E380
ENDCHAR
STARTCHAR 1EA5
ENCODING 7845
SWIDTH 540 0
DWIDTH 9 0
BBX 9 16 0 0
BITMAP
0C00
0800
1800
0000
1C00
1600
3200
0000
3E00
7F00
7380
E380
E380
7F80
7F80
3F80
ENDCHAR
STARTCHAR 1EA6
ENCODING 7846
SWIDTH 600 0
DWIDTH 10 0
BBX 9 19 1 0
BITMAP
1800
0800
0C00
0000
1C00
3400
2600
3C00
7E00
FF00
E700
E380
FF80
FF80
FF80
E380
E380
E380
E380
ENDCHAR
STARTCHAR 1EA7
ENCODING 7847
SWIDTH 540 0
DWIDTH 9 0
BBX 9 16 0 0
BITMAP
1800
0C00
0400
0000
1C00
1600
3200
0000
3E00
7F00
7380
E380
E380
7F80
7F80
3F80
ENDCHAR
STARTCHAR 1EA8
ENCODING 7848
SWIDTH 600 0
DWIDTH 10 0
BBX 9 19 1 0
BITMAP
0200
0500
0300
0200
1C00
3400
2600
3C00
7E00
FF00
E700
E380
FF80
FF80
FF80
E380
E380
E380
E380
ENDCHAR
STARTCHAR 1EA9
ENCODING 7849
SWIDTH 540 0
DWIDTH 9 0
BBX 9 16 0 0
BITMAP
0200
0700
0180
0200
1C00
1600
3200
0000
3E00
7F00
7380
E380
E380
7F80
7F80
3F80
ENDCHAR
STARTCHAR 1EAA
ENCODING 7850
SWIDTH 600 0
DWIDTH 10 0
BBX 9 18 1 0
BITMAP
1A00
3E00
0000
1C00
3400
2600
3C00
7E00
FF00
E700
E380
FF80
FF80
FF80
E380
E380
E380
E380
ENDCHAR
STARTCHAR 1EAB
ENCODING 7851
SWIDTH 540 0
DWIDTH 9 0
BBX 9 15 0 0
BITMAP
0900
1E00
0000
1C00
1600
3200
0000
3E00
7F00
7380
E380
E380
7F80
7F80
3F80
ENDCHAR
STARTCHAR 1EAC
ENCODING 7852
SWIDTH 600 0
DWIDTH 10 0
BBX 9 19 1 -4
BITMAP
1C00
3400
2600
3C00
7E00
FF00
E700
E380
FF80
FF80
FF80
E380
E380
E380
E380
0000
1800
1C00
1C00
ENDCHAR
STARTCHAR 1EAD
ENCODING 7853
SWIDTH 540 0
DWIDTH 9 0
BBX 9 16 0 -4
BITMAP
1C00
1600
3200
0000
3E00
7F00
7380
E380
E380
7F80
7F80
3F80
0000
0C00
1C00
1C00
ENDCHAR
STARTCHAR 1EAE
ENCODING 7854
SWIDTH 600 0
DWIDTH 10 0
BBX 9 19 1 0
BITMAP
0C00
0C00
1800
0000
2200
3C00
0000
3C00
7E00
FF00
E700
E380
FF80
FF80
FF80
E380
E380
E380
E380
ENDCHAR
STARTCHAR 1EAF
ENCODING 7855
SWIDTH 540 0
DWIDTH 9 0
BBX 9 16 0 0
BITMAP
0600
0C00
0800
0000
2200
1E00
0800
0000
3E00
7F00
7380
E380
E380
7F80
7F80
3F80
ENDCHAR
STARTCHAR 1EB0
ENCODING 7856
SWIDTH 600 0
DWIDTH 10 0
BBX 9 19 1 0
BITMAP
3000
1800
0800
0000
2200
3C00
0000
3C00
7E00
FF00
E700
E380
FF80
FF80
FF80
E380
E380
E380
E380
ENDCHAR
STARTCHAR 1EB1
ENCODING 7857
SWIDTH 540 0
DWIDTH 9 0
BBX 9 16 0 0
BITMAP
3000
1800
0800
0000
2200
1E00
0800
0000
3E00
7F00
7380
E380
E380
7F80
7F80
3F80
ENDCHAR
STARTCHAR 1EB2
ENCODING 7858
SWIDTH 600 0
DWIDTH 10 0
BBX 9 19 1 0
BITMAP
1800
1400
0C00
0800
2200
3C00
0000
3C00
7E00
FF00
E700
E380
FF80
FF80
FF80
E380
E380
E380
E380
ENDCHAR
STARTCHAR 1EB3
ENCODING 7859
SWIDTH 540 0
DWIDTH 9 0
BBX 9 16 0 0
BITMAP
0800
1400
0400
0800
2200
1E00
0800
0000
3E00
7F00
7380
E380
E380
7F80
7F80
3F80
ENDCHAR
STARTCHAR 1EB4
ENCODING 7860
SWIDTH 600 0
DWIDTH 10 0
BBX 9 18 1 0
BITMAP
1A00
3C00
0000
2200
3C00
0000
3C00
7E00
FF00
E700
E380
FF80
FF80
FF80
E380
E380
E380
E380
ENDCHAR
STARTCHAR 1EB5
ENCODING 7861
SWIDTH 540 0
DWIDTH 9 0
BBX 9 15 0 0
BITMAP
1A00
3E00
0000
2200
1E00
0800
0000
3E00
7F00
7380
E380
E380
7F80
7F80
3F80
ENDCHAR
STARTCHAR 1EB6
ENCODING 7862
SWIDTH 600 0
DWIDTH 10 0
BBX 9 19 1 -4
BITMAP
2200
3C00
0000
3C00
7E00
FF00
E700
E380
FF80
FF80
FF80
E380
E380
E380
E380
0000
1800
1C00
1C00
ENDCHAR
STARTCHAR 1EB7
ENCODING 7863
SWIDTH 540 0
DWIDTH 9 0
BBX 9 16 0 -4
BITMAP
2200
1E00
0800
0000
3E00
7F00
7380
E380
E380
7F80
7F80
3F80
0000
0C00
1C00
1C00
ENDCHAR
STARTCHAR 1EB8
ENCODING 7864
SWIDTH 480 0
DWIDTH 8 0
BBX 8 16 0 -4
BITMAP
03
1F
3F
78
70
FF
FF
70
70
7F
3F
0F
00
0E
0E
0E
ENDCHAR
STARTCHAR 1EB9
ENCODING 7865
SWIDTH 540 0
DWIDTH 9 0
BBX 9 12 0 -4
BITMAP
3E00
7F00
6700
EE00
E900
7380
7F00
3E00
0000
1C00
1C00
1C00
ENDCHAR
STARTCHAR 1EBA
ENCODING 7866
SWIDTH 480 0
DWIDTH 8 0
BBX 8 16 0 0
BITMAP
07
05
03
02
03
1F
3F
78
70
FF
FF
70
70
7F
3F
0F
ENDCHAR
STARTCHAR 1EBB
ENCODING 7867
SWIDTH 540 0
DWIDTH 9 0
BBX 9 13 0 0
BITMAP
0C00
1400
0C00
0800
0000
3E00
7F00
6700
EE00
E900
7380
7F00
3E00
ENDCHAR
STARTCHAR 1EBC
ENCODING 7868
SWIDTH 480 0
DWIDTH 8 0
BBX 8 15 0 0
BITMAP
0F
12
00
03
1F
3F
78
70
FF
FF
70
70
7F
3F
0F
ENDCHAR
STARTCHAR 1EBD
ENCODING 7869
SWIDTH 540 0
DWIDTH 9 0
BBX 9 12 0 0
BITMAP
0200
3E00
0000
0000
3E00
7F00
6700
EE00
E900
7380
7F00
3E00
ENDCHAR
STARTCHAR 1EBE
ENCODING 7870
SWIDTH 480 0
DWIDTH 8 0
BBX 8 19 0 0
BITMAP
06
0C
08
00
0E
0A
11
03
1F
3F
78
70
FF
FF
70
70
7F
3F
0F
ENDCHAR
STARTCHAR 1EBF
ENCODING 7871
SWIDTH 540 0
DWIDTH 9 0
BBX 9 16 0 0
BITMAP
0C00
0800
1000
0000
1C00
1400
2200
0000
3E00
7F00
6700
EE00
E900
7380
7F00
3E00
ENDCHAR
STARTCHAR 1EC0
ENCODING 7872
SWIDTH 480 0
DWIDTH 8 0
BBX 8 19 0 0
BITMAP
0C
06
02
00
0E
0A
11
03
1F
3F
78
70
FF
FF
70
70
7F
3F
0F
ENDCHAR
STARTCHAR 1EC1
ENCODING 7873
SWIDTH 540 0
DWIDTH 9 0
BBX 9 16 0 0
BITMAP
1800
0C00
0400
0000
1C00
1400
2200
0000
3E00
7F00
6700
EE00
E900
7380
7F00
3E00
ENDCHAR
STARTCHAR 1EC2
ENCODING 7874
SWIDTH 480 0
DWIDTH 8 0
BBX 9 19 0 0
BITMAP
0180
0280
0180
0100
0E00
0A00
1100
0300
1F00
3F00
7800
7000
FF00
FF00
7000
7000
7F00
3F00
0F00
ENDCHAR
STARTCHAR 1EC3
ENCODING 7875
SWIDTH 540 0
DWIDTH 9 0
BBX 9 16 0 0
BITMAP
0200
0700
0100
0200
1C00
1400
2200
0000
3E00
7F00
6700
EE00
E900
7380
7F00
3E00
ENDCHAR
STARTCHAR 1EC4
ENCODING 7876
SWIDTH 480 0
DWIDTH 8 0
BBX 8 18 0 0
BITMAP
0D
0F
00
0E
0A
11
03
1F
3F
78
70
FF
FF
70
70
7F
3F
0F
ENDCHAR
STARTCHAR 1EC5
ENCODING 7877
SWIDTH 540 0
DWIDTH 9 0
BBX 9 15 0 0
BITMAP
0900
1E00
0000
1C00
1400
2200
0000
3E00
7F00
6700
EE00
E900
7380
7F00
3E00
ENDCHAR
STARTCHAR 1EC6
ENCODING 7878
SWIDTH 480 0
DWIDTH 8 0
BBX 8 19 0 -4
BITMAP
0E
0A
11
03
1F
3F
78
70
FF
FF
70
70
7F
3F
0F
00
0E
0E
0E
ENDCHAR
STARTCHAR 1EC7
ENCODING 7879
SWIDTH 540 0
DWIDTH 9 0
BBX 9 16 0 -4
BITMAP
1C00
1400
2200
0000
3E00
7F00
6700
EE00
E900
7380
7F00
3E00
0000
1C00
1C00
1C00
ENDCHAR
STARTCHAR 1EC8
ENCODING 7880
SWIDTH 240 0
DWIDTH 4 0
BBX 3 16 1 0
BITMAP
E0
A0
60
40
E0
E0
E0
E0
E0
E0
E0
E0
E0
E0
E0
E0
ENDCHAR
STARTCHAR 1EC9
ENCODING 7881
SWIDTH 240 0
DWIDTH 4 0
BBX 3 13 1 0
BITMAP
C0
A0
60
40
00
C0
C0
C0
C0
C0
C0
C0
C0
ENDCHAR
STARTCHAR 1ECA
ENCODING 7882
SWIDTH 240 0
DWIDTH 4 0
BBX 3 16 1 -4
BITMAP
E0
E0
E0
E0
E0
E0
E0
E0
E0
E0
E0
E0
00
E0
E0
E0
ENDCHAR
STARTCHAR 1ECB
ENCODING 7883
SWIDTH 240 0
DWIDTH 4 0
BBX 4 16 0 -4
BITMAP
60
70
60
00
60
60
60
60
60
60
60
60
00
60
F0
70
ENDCHAR
STARTCHAR 1ECC
ENCODING 7884
SWIDTH 720 0
DWIDTH 12 0
BBX 12 16 0 -4
BITMAP
0F80
1FC0
3FE0
78F0
7070
6070
E070
7070
70F0
7FE0
3FE0
0F80
0000
0700
0700
0700
ENDCHAR
STARTCHAR 1ECD
ENCODING 7885
SWIDTH 540 0
DWIDTH 9 0
BBX 9 12 0 -4
BITMAP
3E00
7F00
7380
E380
E380
7700
7F00
3E00
0000
1C00
1C00
1C00
ENDCHAR
STARTCHAR 1ECE
ENCODING 7886
SWIDTH 720 0
DWIDTH 12 0
BBX 12 16 0 0
BITMAP
0700
0500
0300
0200
0F80
1FC0
3FE0
78F0
7070
6070
E070
7070
70F0
7FE0
3FE0
0F80
ENDCHAR
STARTCHAR 1ECF
ENCODING 7887
SWIDTH 540 0
DWIDTH 9 0
BBX 9 13 0 0
BITMAP
0C00
1400
0C00
0800
0000
3E00
7F00
7380
E380
E380
7700
7F00
3E00
ENDCHAR
STARTCHAR 1ED0
ENCODING 7888
SWIDTH 720 0
DWIDTH 12 0
BBX 12 19 0 0
BITMAP
0300
0600
0400
0000
0700
0D00
0880
0F80
1FC0
3FE0
78F0
7070
6070
E070
7070
70F0
7FE0
3FE0
0F80
ENDCHAR
STARTCHAR 1ED1
ENCODING 7889
SWIDTH 540 0
DWIDTH 9 0
BBX 9 16 0 0
BITMAP
0C00
0800
1000
0000
1C00
1400
2200
0000
3E00
7F00
7380
E380
E380
7700
7F00
3E00
ENDCHAR
STARTCHAR 1ED2
ENCODING 7890
SWIDTH 720 0
DWIDTH 12 0
BBX 12 19 0 0
BITMAP
0600
0300
0100
0000
0700
0D00
0880
0F80
1FC0
3FE0
78F0
7070
6070
E070
7070
70F0
7FE0
3FE0
0F80
ENDCHAR
STARTCHAR 1ED3
ENCODING 7891
SWIDTH 540 0
DWIDTH 9 0
BBX 9 16 0 0
BITMAP
1800
0C00
0400
0000
1C00
1400
2200
0000
3E00
7F00
7380
E380
E380
7700
7F00
3E00
ENDCHAR
STARTCHAR 1ED4
ENCODING 7892
SWIDTH 720 0
DWIDTH 12 0
BBX 12 19 0 0
BITMAP
00C0
0140
00C0
0080
0700
0D00
0880
0F80
1FC0
3FE0
78F0
7070
6070
E070
7070
70F0
7FE0
3FE0
0F80
ENDCHAR
STARTCHAR 1ED5
ENCODING 7893
SWIDTH 540 0
DWIDTH 9 0
BBX 9 16 0 0
BITMAP
0200
0700
0100
0200
1C00
1400
2200
0000
3E00
7F00
7380
E380
E380
7700
7F00
3E00
ENDCHAR
STARTCHAR 1ED6
ENCODING 7894
SWIDTH 720 0
DWIDTH 12 0
BBX 12 18 0 0
BITMAP
0680
0780
0000
0700
0D00
0880
0F80
1FC0
3FE0
78F0
7070
6070
E070
7070
70F0
7FE0
3FE0
0F80
ENDCHAR
STARTCHAR 1ED7
ENCODING 7895
SWIDTH 540 0
DWIDTH 9 0
BBX 9 15 0 0
BITMAP
0900
1E00
0000
1C00
1400
2200
0000
3E00
7F00
7380
E380
E380
7700
7F00
3E00
ENDCHAR
STARTCHAR 1ED8
ENCODING 7896
SWIDTH 720 0
DWIDTH 12 0
BBX 12 19 0 -4
BITMAP
0700
0D00
0880
0F80
1FC0
3FE0
78F0
7070
6070
E070
7070
70F0
7FE0
3FE0
0F80
0000
0700
0700
0700
ENDCHAR
STARTCHAR 1ED9
ENCODING 7897
SWIDTH 540 0
DWIDTH 9 0
BBX 9 16 0 -4
BITMAP
1C00
1400
2200
0000
3E00
7F00
7380
E380
E380
7700
7F00
3E00
0000
1C00
1C00
1C00
ENDCHAR
STARTCHAR 1EDA
ENCODING 7898
SWIDTH 720 0
DWIDTH 12 0
BBX 13 16 0 0
BITMAP
0180
0300
0200
0038
0FB0
1FF0
3FE0
78F0
7070
6070
E070
7070
70F0
7FE0
3FE0
0F80
ENDCHAR
STARTCHAR 1EDB
ENCODING 7899
SWIDTH 540 0
DWIDTH 9 0
BBX 10 12 0 0
BITMAP
0400
0C00
19C0
0180
3F80
7F00
7380
E380
E380
7700
7F00
3E00
ENDCHAR
STARTCHAR 1EDC
ENCODING 7900
SWIDTH 720 0
DWIDTH 12 0
BBX 13 16 0 0
BITMAP
0C00
0600
0200
0038
0FB0
1FF0
3FE0
78F0
7070
6070
E070
7070
70F0
7FE0
3FE0
0F80
ENDCHAR
STARTCHAR 1EDD
ENCODING 7901
SWIDTH 540 0
DWIDTH 9 0
BBX 10 12 0 0
BITMAP
1800
0800
0DC0
0180
3F80
7F00
7380
E380
E380
7700
7F00
3E00
ENDCHAR
STARTCHAR 1EDE
ENCODING 7902
SWIDTH 720 0
DWIDTH 12 0
BBX 13 16 0 0
BITMAP
0700
0500
0300
0238
0FB0
1FF0
3FE0
78F0
7070
6070
E070
7070
70F0
7FE0
3FE0
0F80
ENDCHAR
STARTCHAR 1EDF
ENCODING 7903
SWIDTH 540 0
DWIDTH 9 0
BBX 10 13 0 0
BITMAP
0C00
1400
0C00
09C0
0180
3F80
7F00
7380
E380
E380
7700
7F00
3E00
ENDCHAR
STARTCHAR 1EE0
ENCODING 7904
SWIDTH 720 0
DWIDTH 12 0
BBX 13 15 0 0
BITMAP
0F80
0900
0038
0FB0
1FF0
3FE0
78F0
7070
6070
E070
7070
70F0
7FE0
3FE0
0F80
ENDCHAR
STARTCHAR 1EE1
ENCODING 7905
SWIDTH 540 0
DWIDTH 9 0
BBX 10 12 0 0
BITMAP
0200
3E00
01C0
0180
3F80
7F00
7380
E380
E380
7700
7F00
3E00
ENDCHAR
STARTCHAR 1EE2
ENCODING 7906
SWIDTH 720 0
DWIDTH 12 0
BBX 13 17 0 -4
BITMAP
0038
0FB0
1FF0
3FE0
78F0
7070
6070
E070
7070
70F0
7FE0
3FE0
0F80
0000
0700
0700
0700
ENDCHAR
STARTCHAR 1EE3
ENCODING 7907
SWIDTH 540 0
DWIDTH 9 0
BBX 10 14 0 -4
BITMAP
01C0
0180
3F80
7F00
7380
E380
E380
7700
7F00
3E00
0000
1C00
1C00
1C00
ENDCHAR
STARTCHAR 1EE4
ENCODING 7908
SWIDTH 600 0
DWIDTH 10 0
BBX 9 16 1 -4
BITMAP
E380
E380
E380
E380
E380
E380
E380
E380
E380
FF00
7F00
3E00
0000
1800
1C00
1C00
ENDCHAR
STARTCHAR 1EE5
ENCODING 7909
SWIDTH 480 0
DWIDTH 8 0
BBX 7 12 1 -4
BITMAP
C6
C6
C6
C6
C6
EE
FE
7C
00
38
38
38
ENDCHAR
STARTCHAR 1EE6
ENCODING 7910
SWIDTH 600 0
DWIDTH 10 0
BBX 9 16 1 0
BITMAP
1800
1400
0C00
0800
E380
E380
E380
E380
E380
E380
E380
E380
E380
FF00
7F00
3E00
ENDCHAR
STARTCHAR 1EE7
ENCODING 7911
SWIDTH 480 0
DWIDTH 8 0
BBX 7 13 1 0
BITMAP
10
28
18
10
00
C6
C6
C6
C6
C6
EE
FE
7C
ENDCHAR
STARTCHAR 1EE8
ENCODING 7912
SWIDTH 660 0
DWIDTH 11 0
BBX 11 16 1 0
BITMAP
0C00
0C00
1800
0060
E3C0
E3C0
E380
E380
E380
E380
E380
E380
E380
FF00
7F00
3E00
ENDCHAR
STARTCHAR 1EE9
ENCODING 7913
SWIDTH 540 0
DWIDTH 9 0
BBX 9 12 1 0
BITMAP
1800
1000
3180
0180
C700
C700
C600
C600
C600
EE00
FE00
7C00
ENDCHAR
STARTCHAR 1EEA
ENCODING 7914
SWIDTH 660 0
DWIDTH 11 0
BBX 11 16 1 0
BITMAP
3000
1800
0800
0060
E3C0
E3C0
E380
E380
E380
E380
E380
E380
E380
FF00
7F00
3E00
ENDCHAR
STARTCHAR 1EEB
ENCODING 7915
SWIDTH 540 0
DWIDTH 9 0
BBX 9 12 1 0
BITMAP
3000
1000
1980
0180
C700
C700
C600
C600
C600
EE00
FE00
7C00
ENDCHAR
STARTCHAR 1EEC
ENCODING 7916
SWIDTH 660 0
DWIDTH 11 0
BBX 11 16 1 0
BITMAP
1800
1400
0C00
0860
E3C0
E3C0
E380
E380
E380
E380
E380
E380
E380
FF00
7F00
3E00
ENDCHAR
STARTCHAR 1EED
ENCODING 7917
SWIDTH 540 0
DWIDTH 9 0
BBX 9 13 1 0
BITMAP
1000
2800
1800
1180
0180
C700
C700
C600
C600
C600
EE00
FE00
7C00
ENDCHAR
STARTCHAR 1EEE
ENCODING 7918
SWIDTH 660 0
DWIDTH 11 0
BBX 11 15 1 0
BITMAP
3C00
2C00
0060
E3C0
E3C0
E380
E380
E380
E380
E380
E380
E380
FF00
7F00
3E00
ENDCHAR
STARTCHAR 1EEF
ENCODING 7919
SWIDTH 540 0
DWIDTH 9 0
BBX 9 12 1 0
BITMAP
0400
7C00
0180
0180
C700
C700
C600
C600
C600
EE00
FE00
7C00
ENDCHAR
STARTCHAR 1EF0
ENCODING 7920
SWIDTH 660 0
DWIDTH 11 0
BBX 11 17 1 -4
BITMAP
0060
E3C0
E3C0
E380
E380
E380
E380
E380
E380
E380
FF00
7F00
3E00
0000
1800
1C00
1C00
ENDCHAR
STARTCHAR 1EF1
ENCODING 7921
SWIDTH 540 0
DWIDTH 9 0
BBX 9 14 1 -4
BITMAP
0180
0180
C700
C700
C600
C600
C600
EE00
FE00
7C00
0000
3800
3800
3800
ENDCHAR
STARTCHAR 1EF2
ENCODING 7922
SWIDTH 540 0
DWIDTH 9 0
BBX 8 16 1 0
BITMAP
70
30
18
00
E7
E7
E7
E7
E7
FF
FE
7C
38
38
38
38
ENDCHAR
STARTCHAR 1EF3
ENCODING 7923
SWIDTH 480 0
DWIDTH 8 0
BBX 7 16 1 -4
BITMAP
30
10
18
00
C6
C6
C6
C6
C6
EE
FE
7C
38
38
38
38
ENDCHAR
STARTCHAR 1EF4
ENCODING 7924
SWIDTH 540 0
DWIDTH 9 0
BBX 8 16 1 -4
BITMAP
E7
E7
E7
E7
E7
FF
FE
7C
38
38
38
38
00
18
38
38
ENDCHAR
STARTCHAR 1EF5
ENCODING 7925
SWIDTH 480 0
DWIDTH 8 0
BBX 8 12 1 -4
BITMAP
C6
C6
C6
C6
C6
EE
FE
7C
38
3E
3F
3E
ENDCHAR
STARTCHAR 1EF6
ENCODING 7926
SWIDTH 540 0
DWIDTH 9 0
BBX 8 16 1 0
BITMAP
18
28
18
10
E7
E7
E7
E7
E7
FF
FE
7C
38
38
38
38
ENDCHAR
STARTCHAR 1EF7
ENCODING 7927
SWIDTH 480 0
DWIDTH 8 0
BBX 7 17 1 -4
BITMAP
10
28
18
10
00
C6
C6
C6
C6
C6
EE
FE
7C
38
38
38
38
ENDCHAR
STARTCHAR 1EF8
ENCODING 7928
SWIDTH 540 0
DWIDTH 9 0
BBX 8 15 1 0
BITMAP
3C
48
00
E7
E7
E7
E7
E7
FF
FE
7C
38
38
38
38
ENDCHAR
STARTCHAR 1EF9
ENCODING 7929
SWIDTH 480 0
DWIDTH 8 0
BBX 7 16 1 -4
BITMAP
04
7C
00
00
C6
C6
C6
C6
C6
EE
FE
7C
38
38
38
38
ENDCHAR
STARTCHAR 2010
ENCODING 8208
SWIDTH 300 0
DWIDTH 5 0
BBX 4 2 1 3
BITMAP
F0
F0
ENDCHAR
STARTCHAR 2013
ENCODING 8211
SWIDTH 480 0
DWIDTH 8 0
BBX 8 2 0 3
BITMAP
FF
FF
ENDCHAR
STARTCHAR 2014
ENCODING 8212
SWIDTH 960 0
DWIDTH 16 0
BBX 17 2 0 3
BITMAP
FFFF80
FFFF80
ENDCHAR
STARTCHAR 2018
ENCODING 8216
SWIDTH 240 0
DWIDTH 4 0
BBX 3 4 1 8
BITMAP
60
60
C0
C0
ENDCHAR
STARTCHAR 2019
ENCODING 8217
SWIDTH 240 0
DWIDTH 4 0
BBX 3 4 1 8
BITMAP
60
60
C0
C0
ENDCHAR
STARTCHAR 201A
ENCODING 8218
SWIDTH 240 0
DWIDTH 4 0
BBX 3 4 1 -2
BITMAP
E0
C0
C0
C0
ENDCHAR
STARTCHAR 201C
ENCODING 8220
SWIDTH 480 0
DWIDTH 8 0
BBX 6 4 1 8
BITMAP
6C
6C
CC
CC
ENDCHAR
STARTCHAR 201D
ENCODING 8221
SWIDTH 480 0
DWIDTH 8 0
BBX 6 4 1 8
BITMAP
6C
6C
CC
C8
ENDCHAR
STARTCHAR 201E
ENCODING 8222
SWIDTH 480 0
DWIDTH 8 0
BBX 6 4 1 -2
BITMAP
EC
CC
CC
D8
ENDCHAR
STARTCHAR 2020
ENCODING 8224
SWIDTH 480 0
DWIDTH 8 0
BBX 8 13 0 -1
BITMAP
18
18
18
FF
FF
18
18
18
18
18
18
18
18
ENDCHAR
STARTCHAR 2021
ENCODING 8225
SWIDTH 480 0
DWIDTH 8 0
BBX 7 13 1 -1
BITMAP
30
30
30
FE
FE
30
30
FE
FE
30
30
30
30
ENDCHAR
STARTCHAR 2022
ENCODING 8226
SWIDTH 540 0
DWIDTH 9 0
BBX 4 5 3 4
BITMAP
60
F0
F0
F0
F0
ENDCHAR
STARTCHAR 2026
ENCODING 8230
SWIDTH 960 0
DWIDTH 16 0
BBX 15 3 1 0
BITMAP
E38C
E39E
E38C
ENDCHAR
STARTCHAR 2030
ENCODING 8240
SWIDTH 1260 0
DWIDTH 21 0
BBX 20 12 1 0
BITMAP
306000
F8C000
D88000
8D8000
DB0000
FB0000
06F1C0
05FBE0
0D9B30
199B30
11FBE0
30F1C0
ENDCHAR
STARTCHAR 2039
ENCODING 8249
SWIDTH 300 0
DWIDTH 5 0
BBX 4 6 1 1
BITMAP
30
60
C0
C0
60
30
ENDCHAR
STARTCHAR 203A
ENCODING 8250
SWIDTH 300 0
DWIDTH 5 0
BBX 3 6 1 1
BITMAP
C0
60
20
60
40
C0
ENDCHAR
STARTCHAR 2044
ENCODING 8260
SWIDTH 120 0
DWIDTH 2 0
BBX 7 12 -2 0
BITMAP
02
06
04
0C
08
18
30
20
60
40
C0
80
ENDCHAR
STARTCHAR 20A3
ENCODING 8355
SWIDTH 780 0
DWIDTH 13 0
BBX 13 12 1 0
BITMAP
3C00
7C00
FC00
E000
E1F8
FDF8
FDE0
FDC0
E1C0
E1C0
E1C0
E1C0
ENDCHAR
STARTCHAR 20AB
ENCODING 8363
SWIDTH 420 0
DWIDTH 7 0
BBX 7 11 0 1
BITMAP
04
1E
04
74
74
C4
CC
7C
38
00
7C
ENDCHAR
STARTCHAR 2122
ENCODING 8482
SWIDTH 780 0
DWIDTH 13 0
BBX 10 5 2 7
BITMAP
FCC0
4EC0
4F40
4D40
4D40
ENDCHAR
STARTCHAR 2126
ENCODING 8486
SWIDTH 780 0
DWIDTH 13 0
BBX 13 12 0 0
BITMAP
1FC0
3FE0
7CF0
7070
7070
7070
7070
7070
38E0
FCF8
FCF8
FCF8
ENDCHAR
STARTCHAR 2202
ENCODING 8706
SWIDTH 540 0
DWIDTH 9 0
BBX 9 11 0 0
BITMAP
1E00
3B00
0100
0100
3B80
6780
6300
E300
6700
6600
3C00
ENDCHAR
STARTCHAR 2206
ENCODING 8710
SWIDTH 660 0
DWIDTH 11 0
BBX 12 12 0 0
BITMAP
0F00
0F00
1F80
1F80
1F80
39C0
39C0
39C0
70E0
70E0
7FE0
FFF0
ENDCHAR
STARTCHAR 220F
ENCODING 8719
SWIDTH 780 0
DWIDTH 13 0
BBX 11 15 1 -3
BITMAP
FFE0
FFE0
FFE0
E0E0
E0E0
E0E0
E0E0
E0E0
E0E0
E0E0
E0E0
E0E0
E0E0
E0E0
E0E0
ENDCHAR
STARTCHAR 2211
ENCODING 8721
SWIDTH 720 0
DWIDTH 12 0
BBX 12 15 0 -3
BITMAP
7FE0
7FE0
7800
3C00
1E00
0F00
0780
0380
0780
0F00
1E00
3C00
7800
7FF0
FFF0
ENDCHAR
STARTCHAR 2212
ENCODING 8722
SWIDTH 780 0
DWIDTH 13 0
BBX 10 2 2 4
BITMAP
FFC0
FFC0
ENDCHAR
STARTCHAR 2219
ENCODING 8729
SWIDTH 240 0
DWIDTH 4 0
BBX 3 4 1 4
BITMAP
40
E0
E0
40
ENDCHAR
STARTCHAR 221A
ENCODING 8730
SWIDTH 660 0
DWIDTH 11 0
BBX 10 14 1 0
BITMAP
00C0
0080
0180
0180
0100
0300
6200
E200
6600
3400
3400
1C00
1800
1800
ENDCHAR
STARTCHAR 221E
ENCODING 8734
SWIDTH 780 0
DWIDTH 13 0
BBX 10 6 2 2
BITMAP
F380
FFC0
8C40
8C40
FEC0
F3C0
ENDCHAR
STARTCHAR 222B
ENCODING 8747
SWIDTH 600 0
DWIDTH 10 0
BBX 10 16 0 -3
BITMAP
0180
07C0
06C0
0400
0C00
0C00
0C00
0C00
0C00
0C00
0C00
0C00
0C00
4800
F800
7000
ENDCHAR
STARTCHAR 2248
ENCODING 8776
SWIDTH 780 0
DWIDTH 13 0
BBX 11 6 1 1
BITMAP
7E20
FFE0
81C0
3800
FFE0
C7E0
ENDCHAR
STARTCHAR 2260
ENCODING 8800
SWIDTH 780 0
DWIDTH 13 0
BBX 10 10 2 0
BITMAP
0180
0380
FFC0
FFC0
0C00
1C00
FFC0
FFC0
6000
6000
ENDCHAR
STARTCHAR 2264
ENCODING 8804
SWIDTH 780 0
DWIDTH 13 0
BBX 10 10 2 0
BITMAP
01C0
0FC0
7E00
F000
FC00
1F80
03C0
0000
FFC0
FFC0
ENDCHAR
STARTCHAR 2265
ENCODING 8805
SWIDTH 780 0
DWIDTH 13 0
BBX 10 10 2 0
BITMAP
C000
FC00
1F80
03C0
0FC0
FE00
E000
0000
FFC0
FFC0
ENDCHAR
STARTCHAR 22F2
ENCODING 8946
SWIDTH 780 0
DWIDTH 13 0
BBX 11 6 1 1
BITMAP
7E20
FFE0
81C0
3800
FFE0
C7E0
ENDCHAR
STARTCHAR 255F
ENCODING 9567
SWIDTH 600 0
DWIDTH 10 0
BBX 9 12 1 0
BITMAP
3C00
7E00
FF00
E700
E380
FF80
FF80
FF80
E380
E380
E380
E380
ENDCHAR
STARTCHAR 2560
ENCODING 9568
SWIDTH 480 0
DWIDTH 8 0
BBX 8 12 0 0
BITMAP
03
1F
3F
78
70
FF
FF
70
70
7F
3F
0F
ENDCHAR
STARTCHAR 2561
ENCODING 9569
SWIDTH 240 0
DWIDTH 4 0
BBX 3 12 1 0
BITMAP
E0
E0
E0
E0
E0
E0
E0
E0
E0
E0
E0
E0
ENDCHAR
STARTCHAR 2562
ENCODING 9570
SWIDTH 720 0
DWIDTH 12 0
BBX 12 12 0 0
BITMAP
0F80
1FC0
3FE0
78F0
7070
6070
E070
7070
70F0
7FE0
3FE0
0F80
ENDCHAR
STARTCHAR 2563
ENCODING 9571
SWIDTH 600 0
DWIDTH 10 0
BBX 9 12 1 0
BITMAP
E380
E380
E380
E380
E380
E380
E380
E380
E380
FF00
7F00
3E00
ENDCHAR
STARTCHAR 2564
ENCODING 9572
SWIDTH 540 0
DWIDTH 9 0
BBX 8 12 1 0
BITMAP
E7
E7
E7
E7
E7
FF
FE
7C
38
38
38
38
ENDCHAR
STARTCHAR 2565
ENCODING 9573
SWIDTH 540 0
DWIDTH 9 0
BBX 9 8 0 0
BITMAP
3E00
7F00
7380
E380
E380
7F80
7F80
3F80
ENDCHAR
STARTCHAR 2566
ENCODING 9574
SWIDTH 540 0
DWIDTH 9 0
BBX 9 8 0 0
BITMAP
3E00
7F00
6700
EE00
E900
7380
7F00
3E00
ENDCHAR
STARTCHAR 2567
ENCODING 9575
SWIDTH 240 0
DWIDTH 4 0
BBX 3 12 1 0
BITMAP
C0
E0
C0
00
C0
C0
C0
C0
C0
C0
C0
C0
ENDCHAR
STARTCHAR 2568
ENCODING 9576
SWIDTH 240 0
DWIDTH 4 0
BBX 2 8 1 0
BITMAP
C0
C0
C0
C0
C0
C0
C0
C0
ENDCHAR
STARTCHAR 2569
ENCODING 9577
SWIDTH 540 0
DWIDTH 9 0
BBX 9 8 0 0
BITMAP
3E00
7F00
7380
E380
E380
7700
7F00
3E00
ENDCHAR
STARTCHAR 256A
ENCODING 9578
SWIDTH 480 0
DWIDTH 8 0
BBX 7 8 1 0
BITMAP
C6
C6
C6
C6
C6
EE
FE
7C
ENDCHAR
STARTCHAR 256B
ENCODING 9579
SWIDTH 480 0
DWIDTH 8 0
BBX 7 12 1 -4
BITMAP
C6
C6
C6
C6
C6
EE
FE
7C
38
38
38
38
ENDCHAR
STARTCHAR 25CA
ENCODING 9674
SWIDTH 480 0
DWIDTH 8 0
BBX 8 16 0 -4
BITMAP
08
18
14
24
24
42
42
81
81
41
42
22
24
24
18
18
ENDCHAR
STARTCHAR 25CB
ENCODING 9675
SWIDTH 600 0
DWIDTH 10 0
BBX 5 7 3 12
BITMAP
30
60
40
00
70
D0
98
ENDCHAR
STARTCHAR 25CF
ENCODING 9679
SWIDTH 600 0
DWIDTH 10 0
BBX 5 7 3 12
BITMAP
60
20
30
00
70
D0
98
ENDCHAR
STARTCHAR 25D8
ENCODING 9688
SWIDTH 600 0
DWIDTH 10 0
BBX 6 7 3 12
BITMAP
08
14
0C
08
70
D0
98
ENDCHAR
STARTCHAR 25D9
ENCODING 9689
SWIDTH 600 0
DWIDTH 10 0
BBX 5 6 3 12
BITMAP
68
F8
00
70
D0
98
ENDCHAR
STARTCHAR F000
ENCODING 61440
SWIDTH 780 0
DWIDTH 13 0
BBX 11 13 1 0
BITMAP
0100
0300
0200
3FC0
7FE0
FFC0
FF80
FF80
FFC0
FFE0
7FE0
7FC0
3FC0
ENDCHAR
STARTCHAR F001
ENCODING 61441
SWIDTH 540 0
DWIDTH 9 0
BBX 8 12 1 0
BITMAP
36
F7
F7
C0
F7
F7
C7
C7
C7
C7
C7
C7
ENDCHAR
STARTCHAR F002
ENCODING 61442
SWIDTH 540 0
DWIDTH 9 0
BBX 8 12 1 0
BITMAP
37
F7
F7
C7
F7
F7
C7
C7
C7
C7
C7
C7
ENDCHAR
ENDFONT
